<?xml version="1.0" encoding="UTF-8"?>
<svg id="Layer_2" data-name="Layer 2" xmlns="http://www.w3.org/2000/svg" viewBox="0 0 296.63 51.42">
  <defs>
    <style>
      .cls-1 {
        fill: #4462ff;
        stroke-width: 0px;
      }
    </style>
  </defs>
  <g id="Layer_1-2" data-name="Layer 1">
    <g>
      <g>
        <path class="cls-1" d="m35.84,34.85l4.92-26.88h10.25l-9.1,42.87h-10.72l-5.74-24.44-5.62,24.44h-10.69L0,7.96h10.28l4.92,26.88,5.89-26.88h8.77l5.98,26.88Z"/>
        <path class="cls-1" d="m91.34,30.28c0,4.18-.78,7.88-2.33,11.1-1.55,3.22-3.75,5.7-6.61,7.44-2.86,1.74-6.11,2.61-9.76,2.61s-6.89-.84-9.72-2.52c-2.83-1.68-5.03-4.08-6.61-7.2-1.58-3.12-2.41-6.7-2.49-10.75v-2.41c0-4.2.77-7.91,2.31-11.12,1.54-3.21,3.75-5.69,6.63-7.44,2.88-1.75,6.15-2.62,9.82-2.62s6.87.86,9.72,2.59c2.85,1.73,5.06,4.19,6.64,7.38,1.58,3.19,2.38,6.85,2.4,10.97v1.97Zm-10.51-1.8c0-4.26-.71-7.49-2.13-9.7-1.42-2.21-3.46-3.31-6.11-3.31-5.18,0-7.92,3.89-8.22,11.66l-.03,3.15c0,4.2.7,7.43,2.09,9.69,1.39,2.26,3.46,3.39,6.21,3.39s4.62-1.11,6.04-3.33c1.41-2.22,2.13-5.41,2.15-9.57v-1.97Z"/>
        <path class="cls-1" d="m135.48,50.83h-10.28l-15.19-26.68v26.68h-10.34V7.96h10.34l15.16,26.68V7.96h10.31v42.87Z"/>
        <path class="cls-1" d="m164.13,39.44c0-1.51-.54-2.69-1.6-3.53-1.07-.84-2.95-1.72-5.64-2.62-2.69-.9-4.89-1.78-6.6-2.62-5.56-2.73-8.33-6.48-8.33-11.25,0-2.38.69-4.47,2.08-6.29,1.38-1.82,3.34-3.23,5.87-4.24,2.53-1.01,5.38-1.52,8.54-1.52s5.85.55,8.29,1.65c2.44,1.1,4.34,2.67,5.7,4.7s2.03,4.35,2.03,6.96h-10.31c0-1.75-.54-3.1-1.6-4.06-1.07-.96-2.52-1.44-4.34-1.44s-3.3.41-4.37,1.22-1.6,1.85-1.6,3.11c0,1.1.59,2.1,1.77,2.99,1.18.89,3.25,1.82,6.21,2.77s5.4,1.98,7.3,3.08c4.63,2.67,6.95,6.35,6.95,11.04,0,3.75-1.41,6.69-4.24,8.83-2.83,2.14-6.7,3.21-11.63,3.21-3.47,0-6.62-.62-9.44-1.87-2.82-1.25-4.94-2.95-6.36-5.12-1.42-2.17-2.13-4.67-2.13-7.49h10.36c0,2.3.59,3.99,1.78,5.08,1.19,1.09,3.12,1.63,5.79,1.63,1.71,0,3.06-.37,4.05-1.1.99-.74,1.49-1.77,1.49-3.11Z"/>
        <path class="cls-1" d="m256.4,33.76h-16.67v17.08h-10.34V7.96h28.68v7.98h-18.34v9.86h16.67v7.95Z"/>
        <path class="cls-1" d="m296.63,15.94h-12.87v34.89h-10.34V15.94h-12.63v-7.98h35.84v7.98Z"/>
      </g>
      <g>
        <path class="cls-1" d="m208.87,9.03v6.11c5.45,2.51,9.23,8.02,9.23,14.42,0,8.77-7.11,15.88-15.88,15.88s-15.89-7.11-15.89-15.88c0-6.39,3.77-11.9,9.22-14.42v-6.11c-8.66,2.81-14.91,10.94-14.91,20.53,0,11.92,9.66,21.58,21.58,21.58s21.58-9.66,21.58-21.58c0-9.6-6.27-17.73-14.93-20.53Zm.94,12.67c-.29-.28-.61-.55-.93-.8-.88-.68-1.87-1.22-2.93-1.61v-10.99c-1.22-.21-2.46-.32-3.73-.32s-2.52.11-3.73.32v10.99c-1.07.39-2.05.93-2.93,1.62-.16.12-.32.25-.48.38-.15.14-.3.27-.45.42-2.06,1.98-3.34,4.76-3.34,7.85s1.22,5.74,3.2,7.71c.37.37.77.72,1.19,1.03.28.21.57.41.87.59.41.25.84.48,1.29.67.45.2.91.37,1.38.5.96.28,1.96.42,3,.42s2.04-.14,2.99-.42c.47-.13.93-.3,1.38-.5.45-.19.88-.42,1.29-.67h.01c.29-.18.58-.37.86-.59.42-.31.82-.66,1.19-1.03,1.98-1.97,3.2-4.7,3.2-7.71s-1.28-5.87-3.33-7.86Zm-11.83,3.62c.16-.16.33-.31.51-.45,1.02-.81,2.32-1.31,3.73-1.31s2.71.5,3.73,1.31c.18.14.35.29.51.45,1.08,1.09,1.76,2.59,1.76,4.24s-.68,3.15-1.76,4.24c-.73.73-1.65,1.27-2.68,1.55-.5.14-1.02.21-1.56.21s-1.08-.08-1.59-.22c-2.53-.7-4.41-3.03-4.41-5.78,0-1.65.68-3.15,1.76-4.24Zm11.83-3.62c-.29-.28-.61-.55-.93-.8v10.8c0,1.25-.51,2.38-1.33,3.2s-1.95,1.33-3.2,1.33h-4.27c-1.24,0-2.38-.51-3.19-1.33-.82-.82-1.33-1.95-1.33-3.2v-10.79c-.16.12-.32.25-.48.38-.15.14-.3.27-.45.42-2.06,1.98-3.34,4.76-3.34,7.85s1.22,5.74,3.2,7.71c.37.37.77.72,1.19,1.03.28.21.57.41.87.59.41.25.84.48,1.29.67.45.2.91.37,1.38.5.96.28,1.96.42,3,.42s2.04-.14,2.99-.42c.47-.13.93-.3,1.38-.5.45-.19.88-.42,1.29-.67h.01c.29-.18.58-.37.86-.59.42-.31.82-.66,1.19-1.03,1.98-1.97,3.2-4.7,3.2-7.71s-1.28-5.87-3.33-7.86Z"/>
        <path class="cls-1" d="m209.81,21.7c-.29-.29-.6-.56-.93-.81-.88-.67-1.87-1.22-2.93-1.61v-5.17c-1.2-.29-2.45-.44-3.73-.44s-2.54.15-3.73.44v5.17c-1.07.39-2.05.94-2.93,1.62-.16.12-.32.25-.48.39-.15.14-.3.27-.45.42-2.06,1.98-3.34,4.76-3.34,7.85s1.22,5.74,3.2,7.71c.37.37.77.72,1.19,1.03.28.21.57.41.87.59.41.25.84.47,1.29.67.45.19.91.36,1.38.5.96.26,1.96.41,3,.41s2.04-.15,2.99-.41c.48-.14.94-.31,1.38-.5.45-.2.88-.42,1.29-.67h.01c.29-.18.58-.37.86-.59.42-.31.82-.66,1.19-1.03,1.98-1.97,3.2-4.7,3.2-7.71s-1.28-5.87-3.33-7.86Zm-7.59,13.86c-.55,0-1.08-.08-1.59-.22-2.53-.7-4.41-3.03-4.41-5.78,0-1.65.68-3.15,1.76-4.24.16-.16.33-.31.51-.45,1.02-.81,2.32-1.31,3.73-1.31s2.71.5,3.73,1.31c.18.14.35.29.51.45,1.08,1.09,1.76,2.59,1.76,4.24s-.68,3.15-1.76,4.24c-.73.73-1.65,1.27-2.68,1.55-.5.14-1.02.21-1.56.21Z"/>
        <path class="cls-1" d="m209.81,21.7c-.29-.28-.61-.55-.93-.8-.88-.68-1.87-1.22-2.93-1.61-1.17-.42-2.42-.65-3.73-.65s-2.57.23-3.73.65c-1.07.39-2.05.93-2.93,1.62-.16.12-.32.25-.48.38-.15.14-.3.27-.45.42-2.06,1.98-3.34,4.76-3.34,7.85s1.22,5.74,3.2,7.71c.37.37.77.72,1.19,1.03.28.21.57.41.87.59.41.25.84.48,1.29.67.45.2.91.37,1.38.5.96.28,1.96.42,3,.42s2.04-.14,2.99-.42c.47-.13.93-.3,1.38-.5.45-.19.88-.42,1.29-.67h.01c.29-.18.58-.37.86-.59.42-.31.82-.66,1.19-1.03,1.98-1.97,3.2-4.7,3.2-7.71s-1.28-5.87-3.33-7.86Zm-11.83,3.62c.16-.16.33-.31.51-.45,1.02-.81,2.32-1.31,3.73-1.31s2.71.5,3.73,1.31c.18.14.35.29.51.45,1.08,1.09,1.76,2.59,1.76,4.24s-.68,3.15-1.76,4.24c-.73.73-1.65,1.27-2.68,1.55-.5.14-1.02.21-1.56.21s-1.08-.08-1.59-.22c-2.53-.7-4.41-3.03-4.41-5.78,0-1.65.68-3.15,1.76-4.24Z"/>
        <path class="cls-1" d="m205.95,19.28V3.73c0-2.05-1.68-3.73-3.73-3.73h0c-2.05,0-3.72,1.68-3.72,3.73v15.55c-1.07.39-2.05.94-2.93,1.62v10.8c0,1.25.51,2.38,1.33,3.2.81.82,1.95,1.33,3.19,1.33h4.27c1.25,0,2.38-.51,3.2-1.33s1.33-1.95,1.33-3.2v-10.81c-.88-.67-1.87-1.22-2.93-1.61Zm.51,14.52c-.73.73-1.65,1.27-2.68,1.55-.5.14-1.02.21-1.56.21s-1.08-.08-1.59-.22c-2.53-.7-4.41-3.03-4.41-5.78,0-1.65.68-3.15,1.76-4.24.16-.16.33-.31.51-.45,1.02-.81,2.32-1.31,3.73-1.31s2.71.5,3.73,1.31c.18.14.35.29.51.45,1.08,1.09,1.76,2.59,1.76,4.24s-.68,3.15-1.76,4.24Z"/>
        <path class="cls-1" d="m202.22,35.56c.54,0,1.06-.07,1.56-.21-.48.23-1.01.35-1.56.35h0c-.57,0-1.1-.13-1.58-.36.51.14,1.04.22,1.59.22Z"/>
        <path class="cls-1" d="m205.95,3.73v21.14c-1.02-.81-2.32-1.31-3.73-1.31s-2.71.5-3.73,1.31V3.73c0-2.05,1.67-3.73,3.72-3.73h0c2.05,0,3.73,1.68,3.73,3.73Z"/>
      </g>
    </g>
  </g>
</svg>